<svg xmlns="http://www.w3.org/2000/svg" xmlns:xlink="http://www.w3.org/1999/xlink" xmlns:lucid="lucid" width="842" height="902"><g transform="translate(1301 380)" lucid:page-tab-id="0_0"><path d="M-1191.37-308.3h505.86M-1191.34-308.3h-1.03M-685.53-308.3h1.02" stroke="#a9afb8" stroke-width="2" fill="none"/><path d="M-1280-214a6 6 0 0 1 6-6h308a6 6 0 0 1 6 6v332a6 6 0 0 1-6 6h-308a6 6 0 0 1-6-6z" fill="#fff"/><path d="M-1280-134v44h320v-44M-1280-48v44h320v-44M-1280 38v44h320V38" fill="#e6e6e6"/><path d="M-1280-177v-37a6 6 0 0 1 6-6h308a6 6 0 0 1 6 6v37" fill="#ccc"/><path d="M-1280-214a6 6 0 0 1 6-6h308a6 6 0 0 1 6 6v332a6 6 0 0 1-6 6h-308a6 6 0 0 1-6-6zM-1280-177h320M-1220-177v301" stroke="#282c33" stroke-width="2" fill="none"/><use xlink:href="#a" transform="matrix(1,0,0,1,-1270,-220) translate(0 30.833333333333332)"/><use xlink:href="#b" transform="matrix(1,0,0,1,-1275,-174.5) translate(10.8 28.333333333333332)"/><use xlink:href="#c" transform="matrix(1,0,0,1,-1215,-174.5) translate(0 28.333333333333332)"/><use xlink:href="#d" transform="matrix(1,0,0,1,-1215,-131.5) translate(0 28.333333333333332)"/><use xlink:href="#e" transform="matrix(1,0,0,1,-1215,-88.5) translate(0 28.333333333333332)"/><use xlink:href="#f" transform="matrix(1,0,0,1,-1215,-45.5) translate(0 28.333333333333332)"/><use xlink:href="#g" transform="matrix(1,0,0,1,-1215,-2.5) translate(0 28.333333333333332)"/><use xlink:href="#h" transform="matrix(1,0,0,1,-1215,40.5) translate(0 28.333333333333332)"/><use xlink:href="#i" transform="matrix(1,0,0,1,-1215,83.5) translate(0 28.333333333333332)"/><path d="M-740-214a6 6 0 0 1 6-6h248a6 6 0 0 1 6 6V32a6 6 0 0 1-6 6h-248a6 6 0 0 1-6-6z" fill="#fff"/><path d="M-740-134v44h260v-44M-740-48v44h260v-44" fill="#e6e6e6"/><path d="M-740-177v-37a6 6 0 0 1 6-6h248a6 6 0 0 1 6 6v37" fill="#ccc"/><path d="M-740-214a6 6 0 0 1 6-6h248a6 6 0 0 1 6 6V32a6 6 0 0 1-6 6h-248a6 6 0 0 1-6-6zM-740-177h260M-628-177V38" stroke="#282c33" stroke-width="2" fill="none"/><use xlink:href="#j" transform="matrix(1,0,0,1,-730,-220) translate(0 30.833333333333332)"/><use xlink:href="#b" transform="matrix(1,0,0,1,-735,-174.5) translate(36.8 28.333333333333332)"/><use xlink:href="#k" transform="matrix(1,0,0,1,-623,-174.5) translate(0 28.333333333333332)"/><use xlink:href="#l" transform="matrix(1,0,0,1,-735,-131.5) translate(6.066666666666663 28.333333333333332)"/><use xlink:href="#c" transform="matrix(1,0,0,1,-623,-131.5) translate(0 28.333333333333332)"/><use xlink:href="#m" transform="matrix(1,0,0,1,-623,-88.5) translate(0 28.333333333333332)"/><use xlink:href="#n" transform="matrix(1,0,0,1,-623,-45.5) translate(0 28.333333333333332)"/><use xlink:href="#g" transform="matrix(1,0,0,1,-623,-2.5) translate(0 28.333333333333332)"/><path d="M-780 206a6 6 0 0 1 6-6h288a6 6 0 0 1 6 6v289a6 6 0 0 1-6 6h-288a6 6 0 0 1-6-6z" fill="#fff"/><path d="M-780 286v44h300v-44M-780 372v44h300v-44M-780 458v37a6 6 0 0 0 6 6h288a6 6 0 0 0 6-6v-37" fill="#e6e6e6"/><path d="M-780 243v-37a6 6 0 0 1 6-6h288a6 6 0 0 1 6 6v37" fill="#ccc"/><path d="M-780 206a6 6 0 0 1 6-6h288a6 6 0 0 1 6 6v289a6 6 0 0 1-6 6h-288a6 6 0 0 1-6-6zM-780 243h300M-636 243v258" stroke="#282c33" stroke-width="2" fill="none"/><use xlink:href="#o" transform="matrix(1,0,0,1,-770,200) translate(0 30.833333333333332)"/><use xlink:href="#b" transform="matrix(1,0,0,1,-775,245.5) translate(52.8 28.333333333333332)"/><use xlink:href="#p" transform="matrix(1,0,0,1,-631,245.5) translate(0 28.333333333333332)"/><use xlink:href="#l" transform="matrix(1,0,0,1,-775,288.5) translate(22.066666666666663 28.333333333333332)"/><use xlink:href="#c" transform="matrix(1,0,0,1,-631,288.5) translate(0 28.333333333333332)"/><use xlink:href="#q" transform="matrix(1,0,0,1,-775,331.5) translate(4.4555555555555415 28.333333333333332)"/><use xlink:href="#k" transform="matrix(1,0,0,1,-631,331.5) translate(0 28.333333333333332)"/><use xlink:href="#r" transform="matrix(1,0,0,1,-631,374.5) translate(0 28.333333333333332)"/><use xlink:href="#g" transform="matrix(1,0,0,1,-631,417.5) translate(0 28.333333333333332)"/><use xlink:href="#m" transform="matrix(1,0,0,1,-631,460.5) translate(0 28.333333333333332)"/><path d="M-901-180h-40.5M-901.03-180h1.03" stroke="#5e5e5e" stroke-width="2" fill="none"/><path d="M-956.76-180l14.26-4.63v9.26z" stroke="#5e5e5e" stroke-width="2" fill="#5e5e5e"/><path d="M-1060-354a6 6 0 0 1 6-6h228a6 6 0 0 1 6 6v48a6 6 0 0 1-6 6h-228a6 6 0 0 1-6-6z" fill="none"/><use xlink:href="#s" transform="matrix(1,0,0,1,-1060,-360) translate(9.655555555555537 39.33333333333333)"/><use xlink:href="#t" transform="matrix(1,0,0,1,-1060,-360) translate(97.0111111111111 39.33333333333333)"/><use xlink:href="#u" transform="matrix(1,0,0,1,-1060,-360) translate(119.23333333333332 39.33333333333333)"/><use xlink:href="#v" transform="matrix(1,0,0,1,-1060,-360) translate(141.45555555555555 39.33333333333333)"/><use xlink:href="#w" transform="matrix(1,0,0,1,-1060,-360) translate(163.67777777777778 39.33333333333333)"/><use xlink:href="#u" transform="matrix(1,0,0,1,-1060,-360) translate(185.9 39.33333333333333)"/><use xlink:href="#x" transform="matrix(1,0,0,1,-1060,-360) translate(208.12222222222223 39.33333333333333)"/><path d="M-1060-314a6 6 0 0 1 6-6h228a6 6 0 0 1 6 6v48a6 6 0 0 1-6 6h-228a6 6 0 0 1-6-6z" fill="none"/><use xlink:href="#y" transform="matrix(1,0,0,1,-1060,-320) translate(70.65555555555557 39.33333333333333)"/><path d="M-799-180h39.5M-798.97-180H-800" stroke="#5e5e5e" stroke-width="2" fill="none"/><path d="M-744.24-180l-14.26 4.63v-9.26z" stroke="#5e5e5e" stroke-width="2" fill="#5e5e5e"/><path d="M-880-214a6 6 0 0 1 6-6h48a6 6 0 0 1 6 6v48a6 6 0 0 1-6 6h-48a6 6 0 0 1-6-6z" fill="none"/><use xlink:href="#z" transform="matrix(1,0,0,1,-880,-220) translate(-16.077777777777776 39.33333333333333)"/><path d="M-970-234a6 6 0 0 1 6-6h62.67a6 6 0 0 1 6 6v44.67a6 6 0 0 1-6 6H-964a6 6 0 0 1-6-6z" fill="none"/><use xlink:href="#A" transform="matrix(1,0,0,1,-970,-240) translate(23.822222222222223 37.83333333333333)"/><path d="M-804.67-234a6 6 0 0 1 6-6H-736a6 6 0 0 1 6 6v44.67a6 6 0 0 1-6 6h-62.67a6 6 0 0 1-6-6z" fill="none"/><use xlink:href="#B" transform="matrix(1,0,0,1,-804.6666666666667,-240) translate(23.2 37.83333333333333)"/><path d="M-670 99.5a6 6 0 0 1 6-6h68a6 6 0 0 1 6 6v39a6 6 0 0 1-6 6h-68a6 6 0 0 1-6-6z" fill="none"/><use xlink:href="#C" transform="matrix(1,0,0,1,-670,93.5) translate(-24.744444444444454 34.83333333333333)"/><path d="M-630.02 92.5v-35" stroke="#5e5e5e" stroke-width="2" fill="none"/><path d="M-629.04 93.5H-631v-1.03h1.96z" stroke="#5e5e5e" stroke-width=".05" fill="#5e5e5e"/><path d="M-630.02 42.24l4.64 14.26h-9.27z" stroke="#5e5e5e" stroke-width="2" fill="#5e5e5e"/><path d="M-630 145.5v35" stroke="#5e5e5e" stroke-width="2" fill="none"/><path d="M-629.02 145.53H-631v-1.03h1.96z" stroke="#5e5e5e" stroke-width=".05" fill="#5e5e5e"/><path d="M-630 195.76l-4.63-14.26h9.26z" stroke="#5e5e5e" stroke-width="2" fill="#5e5e5e"/><path d="M-640 42.83a6 6 0 0 1 6-6h62.67a6 6 0 0 1 6 6V87.5a6 6 0 0 1-6 6H-634a6 6 0 0 1-6-6z" fill="none"/><use xlink:href="#A" transform="matrix(1,0,0,1,-640,36.83333333333346) translate(23.822222222222223 37.83333333333333)"/><path d="M-640 146a6 6 0 0 1 6-6h62.67a6 6 0 0 1 6 6v44.67a6 6 0 0 1-6 6H-634a6 6 0 0 1-6-6z" fill="none"/><use xlink:href="#B" transform="matrix(1,0,0,1,-640,139.99999999999997) translate(23.2 37.83333333333333)"/><path d="M-1027.63 218.37H-1114a6 6 0 0 1-6-6V143.5" stroke="#5e5e5e" stroke-width="2" fill="none"/><path d="M-1026.48 218.2l-.6.7-.52.44h-.06v-1.94h1.67z" stroke="#5e5e5e" stroke-width=".05" fill="#5e5e5e"/><path d="M-1120 128.24l4.63 14.26h-9.27z" stroke="#5e5e5e" stroke-width="2" fill="#5e5e5e"/><path d="M-899 220h43a6 6 0 0 1 6 6v48a6 6 0 0 0 6 6h25.5M-898.97 220H-900" stroke="#5e5e5e" stroke-width="2" fill="none"/><path d="M-803.24 280l-14.26 4.63v-9.26z" stroke="#5e5e5e" stroke-width="2" fill="#5e5e5e"/><path d="M-1000 190a6 6 0 0 1 6-6h48a6 6 0 0 1 6 6v48a6 6 0 0 1-6 6h-48a6 6 0 0 1-6-6z" fill="none"/><g><use xlink:href="#z" transform="matrix(1,0,0,1,-1000,184) translate(-16.077777777777776 39.33333333333333)"/></g><path d="M-1100 170a6 6 0 0 1 6-6h62.67a6 6 0 0 1 6 6v44.67a6 6 0 0 1-6 6H-1094a6 6 0 0 1-6-6z" fill="none"/><g><use xlink:href="#A" transform="matrix(1,0,0,1,-1100,164) translate(23.822222222222223 37.83333333333333)"/></g><path d="M-914.67 170a6 6 0 0 1 6-6H-846a6 6 0 0 1 6 6v44.67a6 6 0 0 1-6 6h-62.67a6 6 0 0 1-6-6z" fill="none"/><g><use xlink:href="#B" transform="matrix(1,0,0,1,-914.6666666666667,164) translate(23.2 37.83333333333333)"/></g><defs><path fill="#282c33" d="M360 13C211 13 97-67 97-303v-430h93v433c0 177 75 232 170 232 98 0 175-55 175-232v-433h89v430C624-67 510 13 360 13" id="D"/><path fill="#282c33" d="M234 13C157 13 83-19 31-62l45-60c47 38 96 64 161 64 72 0 107-38 107-85 0-55-64-80-124-103-76-28-162-65-162-157 0-86 69-154 187-154 67 0 126 28 169 61l-44 59c-38-28-76-48-125-48-68 0-99 36-99 78 0 52 59 71 120 94 79 30 166 62 166 165 0 88-70 161-198 161" id="E"/><path fill="#282c33" d="M311 13C167 13 51-92 51-271c0-176 119-286 245-286 154-3 234 132 212 307H142c6 116 77 190 180 190 53 0 96-16 136-43l33 60c-48 31-106 56-180 56zM141-315h291c0-110-50-169-135-169-77 0-145 62-156 169" id="F"/><path fill="#282c33" d="M92 0v-543h75l8 99h3c50-86 117-137 212-101l-17 80c-18-7-31-9-53-9-45 0-101 32-137 125V0H92" id="G"/><g id="a"><use transform="matrix(0.022222222222222223,0,0,0.022222222222222223,0,0)" xlink:href="#D"/><use transform="matrix(0.022222222222222223,0,0,0.022222222222222223,16.022222222222222,0)" xlink:href="#E"/><use transform="matrix(0.022222222222222223,0,0,0.022222222222222223,26.422222222222224,0)" xlink:href="#F"/><use transform="matrix(0.022222222222222223,0,0,0.022222222222222223,38.733333333333334,0)" xlink:href="#G"/><use transform="matrix(0.022222222222222223,0,0,0.022222222222222223,47.355555555555554,0)" xlink:href="#E"/></g><path fill="#282c33" d="M100 0v-733h209c165 0 275 55 275 215 0 155-110 227-270 227H193V0h-93zm93-366h109c129 0 190-47 190-152 0-106-65-140-194-140H193v292" id="H"/><path fill="#282c33" d="M100 0v-733h93v368h3l306-368h104L377-454 642 0H538L319-382 193-232V0h-93" id="I"/><g id="b"><use transform="matrix(0.022222222222222223,0,0,0.022222222222222223,0,0)" xlink:href="#H"/><use transform="matrix(0.022222222222222223,0,0,0.022222222222222223,14.044444444444444,0)" xlink:href="#I"/></g><path fill="#282c33" d="M250 13C136 13 85-61 85-199v-344h91v333c0 101 30 144 102 144 56 0 95-27 147-92v-385h91V0h-76l-7-85h-3c-51 59-105 98-180 98" id="J"/><path fill="#282c33" d="M13 140V79h532v61H13" id="K"/><path fill="#282c33" d="M92 0v-543h91V0H92zm46-655c-36 0-63-25-63-59 0-37 27-59 63-59s63 22 63 59c0 34-27 59-63 59" id="L"/><path fill="#282c33" d="M277 13C141 13 53-90 53-271c-5-249 231-368 388-222-8-95-4-201-5-303h91V0h-74c-4-21-4-46-11-64-43 42-100 77-165 77zm20-76c50 0 94-25 139-75v-285c-123-120-291-42-289 151 0 131 54 209 150 209" id="M"/><g id="c"><use transform="matrix(0.022222222222222223,0,0,0.022222222222222223,0,0)" xlink:href="#J"/><use transform="matrix(0.022222222222222223,0,0,0.022222222222222223,13.488888888888889,0)" xlink:href="#E"/><use transform="matrix(0.022222222222222223,0,0,0.022222222222222223,23.88888888888889,0)" xlink:href="#F"/><use transform="matrix(0.022222222222222223,0,0,0.022222222222222223,36.2,0)" xlink:href="#G"/><use transform="matrix(0.022222222222222223,0,0,0.022222222222222223,44.82222222222222,0)" xlink:href="#K"/><use transform="matrix(0.022222222222222223,0,0,0.022222222222222223,57.24444444444445,0)" xlink:href="#L"/><use transform="matrix(0.022222222222222223,0,0,0.022222222222222223,63.35555555555556,0)" xlink:href="#M"/></g><path fill="#282c33" d="M92 0v-543h75l8 78h3c52-51 108-92 182-92 114 0 166 74 166 213V0h-91v-332c0-102-31-145-103-145-56 0-94 28-149 83V0H92" id="N"/><path fill="#282c33" d="M217 13C126 13 58-43 58-141c0-118 103-177 334-203 0-70-23-137-112-137-63 0-120 29-163 58l-36-63c50-32 127-71 214-71 132 0 188 89 188 223V0h-75l-8-65h-3c-52 43-113 78-180 78zm26-73c53 0 96-25 149-72v-152c-183 22-245 67-245 137 0 62 42 87 96 87" id="O"/><path fill="#282c33" d="M92 0v-543h75l8 79h3c47-52 104-93 169-93 83 0 128 40 150 104 56-61 113-104 179-104 112 0 165 74 165 213V0h-91v-332c0-102-32-145-101-145-42 0-86 27-137 83V0h-91v-332c0-102-32-145-101-145-41 0-87 27-137 83V0H92" id="P"/><g id="d"><use transform="matrix(0.022222222222222223,0,0,0.022222222222222223,0,0)" xlink:href="#N"/><use transform="matrix(0.022222222222222223,0,0,0.022222222222222223,13.577777777777778,0)" xlink:href="#O"/><use transform="matrix(0.022222222222222223,0,0,0.022222222222222223,26.11111111111111,0)" xlink:href="#P"/><use transform="matrix(0.022222222222222223,0,0,0.022222222222222223,46.68888888888889,0)" xlink:href="#F"/></g><path fill="#282c33" d="M241 5C155 32 92-8 92-108v-688h91v694c3 37 15 43 45 37" id="Q"/><path fill="#282c33" d="M239 197C147 47 92-114 92-311c0-196 55-358 147-507l57 26c-171 284-171 678 0 962" id="R"/><path fill="#282c33" d="M100 0v-733h96c115 204 239 400 345 613h5c-18-192-10-405-12-613h88V0h-95C412-205 289-402 181-614h-4c17 193 10 407 11 614h-88" id="S"/><path fill="#282c33" d="M100 0v-733h93V0h-93" id="T"/><path fill="#282c33" d="M153-369c0 187 86 306 218 306 131 0 218-119 218-306 0-184-87-297-218-297-132 0-218 113-218 297zM682 96l18 72c-22 8-61 16-105 16-135 0-228-73-269-174C166-12 58-154 58-369c0-235 129-378 313-378s313 143 313 378C684-158 580-18 425 9c39 85 153 116 257 87" id="U"/><path fill="#282c33" d="M100 0v-733h423v78H193v230h278v79H193v267h341V0H100" id="V"/><path fill="#282c33" d="M99 197l-56-27c171-284 171-678 0-962l56-26c93 149 148 311 148 507 0 197-55 358-148 508" id="W"/><g id="e"><use transform="matrix(0.022222222222222223,0,0,0.022222222222222223,0,0)" xlink:href="#F"/><use transform="matrix(0.022222222222222223,0,0,0.022222222222222223,12.311111111111112,0)" xlink:href="#P"/><use transform="matrix(0.022222222222222223,0,0,0.022222222222222223,32.88888888888889,0)" xlink:href="#O"/><use transform="matrix(0.022222222222222223,0,0,0.022222222222222223,45.422222222222224,0)" xlink:href="#L"/><use transform="matrix(0.022222222222222223,0,0,0.022222222222222223,51.53333333333334,0)" xlink:href="#Q"/><use transform="matrix(0.022222222222222223,0,0,0.022222222222222223,57.86666666666668,0)" xlink:href="#R"/><use transform="matrix(0.022222222222222223,0,0,0.022222222222222223,65.37777777777778,0)" xlink:href="#D"/><use transform="matrix(0.022222222222222223,0,0,0.022222222222222223,81.4,0)" xlink:href="#S"/><use transform="matrix(0.022222222222222223,0,0,0.022222222222222223,97.44444444444444,0)" xlink:href="#T"/><use transform="matrix(0.022222222222222223,0,0,0.022222222222222223,103.95555555555556,0)" xlink:href="#U"/><use transform="matrix(0.022222222222222223,0,0,0.022222222222222223,120.02222222222225,0)" xlink:href="#D"/><use transform="matrix(0.022222222222222223,0,0,0.022222222222222223,135.71111111111114,0)" xlink:href="#V"/><use transform="matrix(0.022222222222222223,0,0,0.022222222222222223,148.7777777777778,0)" xlink:href="#W"/></g><path fill="#282c33" d="M92 229v-772h75l8 62h3c49-40 110-76 173-76 140 0 216 110 216 277C567-22 349 94 181-50c3 91 2 185 2 279H92zm91-349C317-1 471-73 472-279c0-120-40-201-143-201-46 0-93 26-146 75v285" id="X"/><path fill="#282c33" d="M178 0L27-543h93c39 154 83 304 113 466h5c36-159 81-311 121-466h89c41 154 85 308 123 466h4c34-159 75-312 114-466h86L629 0H519c-39-150-82-293-116-449h-5C365-294 323-150 285 0H178" id="Y"/><path fill="#282c33" d="M303 13C170 13 51-91 51-271c0-181 119-286 252-286s252 105 252 286C555-91 436 13 303 13zm0-76c94 0 158-83 158-208s-64-210-158-210-157 85-157 210S209-63 303-63" id="Z"/><path fill="#282c33" d="M92 0v-796h91c0 111 1 223-3 330 50-50 106-91 180-91 114 0 166 74 166 213V0h-91v-332c0-102-31-145-103-145-56 0-94 28-149 83V0H92" id="aa"/><g id="f"><use transform="matrix(0.022222222222222223,0,0,0.022222222222222223,0,0)" xlink:href="#X"/><use transform="matrix(0.022222222222222223,0,0,0.022222222222222223,13.777777777777779,0)" xlink:href="#O"/><use transform="matrix(0.022222222222222223,0,0,0.022222222222222223,26.311111111111114,0)" xlink:href="#E"/><use transform="matrix(0.022222222222222223,0,0,0.022222222222222223,36.71111111111111,0)" xlink:href="#E"/><use transform="matrix(0.022222222222222223,0,0,0.022222222222222223,47.1111111111111,0)" xlink:href="#Y"/><use transform="matrix(0.022222222222222223,0,0,0.022222222222222223,64.93333333333334,0)" xlink:href="#Z"/><use transform="matrix(0.022222222222222223,0,0,0.022222222222222223,78.4,0)" xlink:href="#G"/><use transform="matrix(0.022222222222222223,0,0,0.022222222222222223,87.02222222222223,0)" xlink:href="#M"/><use transform="matrix(0.022222222222222223,0,0,0.022222222222222223,100.8,0)" xlink:href="#K"/><use transform="matrix(0.022222222222222223,0,0,0.022222222222222223,113.22222222222223,0)" xlink:href="#aa"/><use transform="matrix(0.022222222222222223,0,0,0.022222222222222223,126.71111111111112,0)" xlink:href="#O"/><use transform="matrix(0.022222222222222223,0,0,0.022222222222222223,139.24444444444447,0)" xlink:href="#E"/><use transform="matrix(0.022222222222222223,0,0,0.022222222222222223,149.64444444444447,0)" xlink:href="#aa"/></g><path fill="#282c33" d="M306 13C162 13 51-91 51-271c0-181 123-286 262-286 71 0 120 30 159 64l-47 61c-32-29-65-49-109-49-98 0-170 85-170 210S214-63 314-63c50 0 94-23 128-54l39 61c-48 44-110 69-175 69" id="ab"/><path fill="#282c33" d="M263 13c-116 0-155-72-155-181v-301H27v-69l85-5 11-152h76v152h147v74H199v303c0 67 21 105 84 105 19 0 44-7 62-14l18 68c-31 10-67 20-100 20" id="ac"/><g id="g"><use transform="matrix(0.022222222222222223,0,0,0.022222222222222223,0,0)" xlink:href="#ab"/><use transform="matrix(0.022222222222222223,0,0,0.022222222222222223,11.311111111111112,0)" xlink:href="#G"/><use transform="matrix(0.022222222222222223,0,0,0.022222222222222223,19.933333333333334,0)" xlink:href="#F"/><use transform="matrix(0.022222222222222223,0,0,0.022222222222222223,32.24444444444445,0)" xlink:href="#O"/><use transform="matrix(0.022222222222222223,0,0,0.022222222222222223,44.77777777777778,0)" xlink:href="#ac"/><use transform="matrix(0.022222222222222223,0,0,0.022222222222222223,53.15555555555556,0)" xlink:href="#F"/><use transform="matrix(0.022222222222222223,0,0,0.022222222222222223,65.46666666666667,0)" xlink:href="#M"/><use transform="matrix(0.022222222222222223,0,0,0.022222222222222223,79.24444444444444,0)" xlink:href="#K"/><use transform="matrix(0.022222222222222223,0,0,0.022222222222222223,91.66666666666664,0)" xlink:href="#O"/><use transform="matrix(0.022222222222222223,0,0,0.022222222222222223,104.19999999999999,0)" xlink:href="#ac"/></g><g id="h"><use transform="matrix(0.022222222222222223,0,0,0.022222222222222223,0,0)" xlink:href="#J"/><use transform="matrix(0.022222222222222223,0,0,0.022222222222222223,13.488888888888889,0)" xlink:href="#X"/><use transform="matrix(0.022222222222222223,0,0,0.022222222222222223,27.26666666666667,0)" xlink:href="#M"/><use transform="matrix(0.022222222222222223,0,0,0.022222222222222223,41.044444444444444,0)" xlink:href="#O"/><use transform="matrix(0.022222222222222223,0,0,0.022222222222222223,53.57777777777778,0)" xlink:href="#ac"/><use transform="matrix(0.022222222222222223,0,0,0.022222222222222223,61.955555555555556,0)" xlink:href="#F"/><use transform="matrix(0.022222222222222223,0,0,0.022222222222222223,74.26666666666667,0)" xlink:href="#M"/><use transform="matrix(0.022222222222222223,0,0,0.022222222222222223,88.04444444444445,0)" xlink:href="#K"/><use transform="matrix(0.022222222222222223,0,0,0.022222222222222223,100.46666666666667,0)" xlink:href="#O"/><use transform="matrix(0.022222222222222223,0,0,0.022222222222222223,113,0)" xlink:href="#ac"/></g><g id="i"><use transform="matrix(0.022222222222222223,0,0,0.022222222222222223,0,0)" xlink:href="#E"/><use transform="matrix(0.022222222222222223,0,0,0.022222222222222223,10.4,0)" xlink:href="#Z"/><use transform="matrix(0.022222222222222223,0,0,0.022222222222222223,23.866666666666667,0)" xlink:href="#ab"/><use transform="matrix(0.022222222222222223,0,0,0.022222222222222223,35.17777777777778,0)" xlink:href="#L"/><use transform="matrix(0.022222222222222223,0,0,0.022222222222222223,41.28888888888889,0)" xlink:href="#O"/><use transform="matrix(0.022222222222222223,0,0,0.022222222222222223,53.82222222222222,0)" xlink:href="#Q"/><use transform="matrix(0.022222222222222223,0,0,0.022222222222222223,60.15555555555556,0)" xlink:href="#K"/><use transform="matrix(0.022222222222222223,0,0,0.022222222222222223,72.57777777777778,0)" xlink:href="#O"/><use transform="matrix(0.022222222222222223,0,0,0.022222222222222223,85.11111111111111,0)" xlink:href="#J"/><use transform="matrix(0.022222222222222223,0,0,0.022222222222222223,98.60000000000001,0)" xlink:href="#ac"/><use transform="matrix(0.022222222222222223,0,0,0.022222222222222223,106.97777777777779,0)" xlink:href="#aa"/></g><g id="j"><use transform="matrix(0.022222222222222223,0,0,0.022222222222222223,0,0)" xlink:href="#V"/><use transform="matrix(0.022222222222222223,0,0,0.022222222222222223,13.066666666666666,0)" xlink:href="#X"/><use transform="matrix(0.022222222222222223,0,0,0.022222222222222223,26.844444444444445,0)" xlink:href="#L"/><use transform="matrix(0.022222222222222223,0,0,0.022222222222222223,32.955555555555556,0)" xlink:href="#E"/><use transform="matrix(0.022222222222222223,0,0,0.022222222222222223,43.355555555555554,0)" xlink:href="#Z"/><use transform="matrix(0.022222222222222223,0,0,0.022222222222222223,56.82222222222222,0)" xlink:href="#M"/><use transform="matrix(0.022222222222222223,0,0,0.022222222222222223,70.6,0)" xlink:href="#F"/><use transform="matrix(0.022222222222222223,0,0,0.022222222222222223,82.91111111111111,0)" xlink:href="#E"/></g><g id="k"><use transform="matrix(0.022222222222222223,0,0,0.022222222222222223,0,0)" xlink:href="#F"/><use transform="matrix(0.022222222222222223,0,0,0.022222222222222223,12.311111111111112,0)" xlink:href="#X"/><use transform="matrix(0.022222222222222223,0,0,0.022222222222222223,26.08888888888889,0)" xlink:href="#L"/><use transform="matrix(0.022222222222222223,0,0,0.022222222222222223,32.2,0)" xlink:href="#E"/><use transform="matrix(0.022222222222222223,0,0,0.022222222222222223,42.6,0)" xlink:href="#Z"/><use transform="matrix(0.022222222222222223,0,0,0.022222222222222223,56.06666666666667,0)" xlink:href="#M"/><use transform="matrix(0.022222222222222223,0,0,0.022222222222222223,69.84444444444445,0)" xlink:href="#F"/><use transform="matrix(0.022222222222222223,0,0,0.022222222222222223,82.15555555555557,0)" xlink:href="#K"/><use transform="matrix(0.022222222222222223,0,0,0.022222222222222223,94.57777777777778,0)" xlink:href="#L"/><use transform="matrix(0.022222222222222223,0,0,0.022222222222222223,100.6888888888889,0)" xlink:href="#M"/></g><path fill="#282c33" d="M100 0v-733h423v78H193v248h280v78H193V0h-93" id="ad"/><path fill="#282c33" d="M139-390c-36 0-66-29-66-69 0-42 30-71 66-71s66 29 66 71c0 40-30 69-66 69zm0 403c-36 0-66-28-66-69s30-71 66-71 66 30 66 71-30 69-66 69" id="ae"/><g id="l"><use transform="matrix(0.022222222222222223,0,0,0.022222222222222223,0,0)" xlink:href="#ad"/><use transform="matrix(0.022222222222222223,0,0,0.022222222222222223,12.266666666666667,0)" xlink:href="#I"/><use transform="matrix(0.022222222222222223,0,0,0.022222222222222223,26.622222222222224,0)" xlink:href="#ae"/><use transform="matrix(0.022222222222222223,0,0,0.022222222222222223,32.111111111111114,0)" xlink:href="#D"/><use transform="matrix(0.022222222222222223,0,0,0.022222222222222223,48.13333333333333,0)" xlink:href="#E"/><use transform="matrix(0.022222222222222223,0,0,0.022222222222222223,58.53333333333334,0)" xlink:href="#F"/><use transform="matrix(0.022222222222222223,0,0,0.022222222222222223,70.84444444444445,0)" xlink:href="#G"/><use transform="matrix(0.022222222222222223,0,0,0.022222222222222223,79.46666666666667,0)" xlink:href="#E"/></g><g id="m"><use transform="matrix(0.022222222222222223,0,0,0.022222222222222223,0,0)" xlink:href="#ac"/><use transform="matrix(0.022222222222222223,0,0,0.022222222222222223,8.377777777777778,0)" xlink:href="#L"/><use transform="matrix(0.022222222222222223,0,0,0.022222222222222223,14.488888888888889,0)" xlink:href="#ac"/><use transform="matrix(0.022222222222222223,0,0,0.022222222222222223,22.866666666666667,0)" xlink:href="#Q"/><use transform="matrix(0.022222222222222223,0,0,0.022222222222222223,29.200000000000003,0)" xlink:href="#F"/></g><g id="n"><use transform="matrix(0.022222222222222223,0,0,0.022222222222222223,0,0)" xlink:href="#M"/><use transform="matrix(0.022222222222222223,0,0,0.022222222222222223,13.777777777777779,0)" xlink:href="#F"/><use transform="matrix(0.022222222222222223,0,0,0.022222222222222223,26.08888888888889,0)" xlink:href="#E"/><use transform="matrix(0.022222222222222223,0,0,0.022222222222222223,36.48888888888889,0)" xlink:href="#ab"/><use transform="matrix(0.022222222222222223,0,0,0.022222222222222223,47.800000000000004,0)" xlink:href="#G"/><use transform="matrix(0.022222222222222223,0,0,0.022222222222222223,56.42222222222222,0)" xlink:href="#L"/><use transform="matrix(0.022222222222222223,0,0,0.022222222222222223,62.53333333333334,0)" xlink:href="#X"/><use transform="matrix(0.022222222222222223,0,0,0.022222222222222223,76.3111111111111,0)" xlink:href="#ac"/><use transform="matrix(0.022222222222222223,0,0,0.022222222222222223,84.68888888888888,0)" xlink:href="#L"/><use transform="matrix(0.022222222222222223,0,0,0.022222222222222223,90.8,0)" xlink:href="#Z"/><use transform="matrix(0.022222222222222223,0,0,0.022222222222222223,104.26666666666667,0)" xlink:href="#N"/></g><path fill="#282c33" d="M377 13C195 13 58-128 58-366c0-237 139-381 325-381 89 0 159 44 201 91l-50 60c-38-41-87-70-150-70-139 0-231 114-231 297 0 185 88 301 228 301 70 0 123-31 170-82l51 58C544-25 472 13 377 13" id="af"/><g id="o"><use transform="matrix(0.022222222222222223,0,0,0.022222222222222223,0,0)" xlink:href="#af"/><use transform="matrix(0.022222222222222223,0,0,0.022222222222222223,14.177777777777779,0)" xlink:href="#Z"/><use transform="matrix(0.022222222222222223,0,0,0.022222222222222223,27.644444444444446,0)" xlink:href="#P"/><use transform="matrix(0.022222222222222223,0,0,0.022222222222222223,48.22222222222222,0)" xlink:href="#L"/><use transform="matrix(0.022222222222222223,0,0,0.022222222222222223,54.33333333333334,0)" xlink:href="#ab"/><use transform="matrix(0.022222222222222223,0,0,0.022222222222222223,65.64444444444446,0)" xlink:href="#E"/></g><g id="p"><use transform="matrix(0.022222222222222223,0,0,0.022222222222222223,0,0)" xlink:href="#ab"/><use transform="matrix(0.022222222222222223,0,0,0.022222222222222223,11.311111111111112,0)" xlink:href="#Z"/><use transform="matrix(0.022222222222222223,0,0,0.022222222222222223,24.77777777777778,0)" xlink:href="#P"/><use transform="matrix(0.022222222222222223,0,0,0.022222222222222223,45.355555555555554,0)" xlink:href="#L"/><use transform="matrix(0.022222222222222223,0,0,0.022222222222222223,51.46666666666667,0)" xlink:href="#ab"/><use transform="matrix(0.022222222222222223,0,0,0.022222222222222223,62.77777777777778,0)" xlink:href="#K"/><use transform="matrix(0.022222222222222223,0,0,0.022222222222222223,75.2,0)" xlink:href="#L"/><use transform="matrix(0.022222222222222223,0,0,0.022222222222222223,81.31111111111112,0)" xlink:href="#M"/></g><g id="q"><use transform="matrix(0.022222222222222223,0,0,0.022222222222222223,0,0)" xlink:href="#ad"/><use transform="matrix(0.022222222222222223,0,0,0.022222222222222223,12.266666666666667,0)" xlink:href="#I"/><use transform="matrix(0.022222222222222223,0,0,0.022222222222222223,26.622222222222224,0)" xlink:href="#ae"/><use transform="matrix(0.022222222222222223,0,0,0.022222222222222223,31.77777777777778,0)" xlink:href="#V"/><use transform="matrix(0.022222222222222223,0,0,0.022222222222222223,44.84444444444445,0)" xlink:href="#X"/><use transform="matrix(0.022222222222222223,0,0,0.022222222222222223,58.62222222222223,0)" xlink:href="#L"/><use transform="matrix(0.022222222222222223,0,0,0.022222222222222223,64.73333333333333,0)" xlink:href="#E"/><use transform="matrix(0.022222222222222223,0,0,0.022222222222222223,75.13333333333334,0)" xlink:href="#Z"/><use transform="matrix(0.022222222222222223,0,0,0.022222222222222223,88.60000000000001,0)" xlink:href="#M"/><use transform="matrix(0.022222222222222223,0,0,0.022222222222222223,102.37777777777781,0)" xlink:href="#F"/><use transform="matrix(0.022222222222222223,0,0,0.022222222222222223,114.68888888888891,0)" xlink:href="#E"/></g><path fill="#282c33" d="M275 250c-133 0-225-52-225-146 0-46 30-90 81-123v-4c-29-17-50-46-50-89 0-45 33-81 61-101v-4c-36-29-71-81-71-146-2-145 144-228 280-180h189v70H429c26 25 44 65 44 112 4 144-147 228-279 170-52 42-57 131 60 124h106c126 0 189 40 189 129 0 101-106 188-274 188zm0-484c62 0 115-50 115-129s-51-127-115-127-116 47-116 127c0 79 53 129 116 129zm13 422c104 0 173-55 173-112 0-103-183-49-275-76-106 75-57 194 102 188" id="ag"/><g id="r"><use transform="matrix(0.022222222222222223,0,0,0.022222222222222223,0,0)" xlink:href="#L"/><use transform="matrix(0.022222222222222223,0,0,0.022222222222222223,6.111111111111112,0)" xlink:href="#P"/><use transform="matrix(0.022222222222222223,0,0,0.022222222222222223,26.68888888888889,0)" xlink:href="#O"/><use transform="matrix(0.022222222222222223,0,0,0.022222222222222223,39.22222222222222,0)" xlink:href="#ag"/><use transform="matrix(0.022222222222222223,0,0,0.022222222222222223,51.733333333333334,0)" xlink:href="#F"/><use transform="matrix(0.022222222222222223,0,0,0.022222222222222223,64.04444444444445,0)" xlink:href="#K"/><use transform="matrix(0.022222222222222223,0,0,0.022222222222222223,76.46666666666667,0)" xlink:href="#J"/><use transform="matrix(0.022222222222222223,0,0,0.022222222222222223,89.95555555555556,0)" xlink:href="#G"/><use transform="matrix(0.022222222222222223,0,0,0.022222222222222223,98.57777777777778,0)" xlink:href="#Q"/></g><path fill="#282c33" d="M100 0v-733h93v368h3l306-368h104L377-454 642 0H538L319-382 193-232V0h-93" id="ah"/><path fill="#282c33" d="M303 13C170 13 51-91 51-271c0-181 119-286 252-286s252 105 252 286C555-91 436 13 303 13zm0-76c94 0 158-83 158-208s-64-210-158-210-157 85-157 210S209-63 303-63" id="ai"/><path fill="#282c33" d="M92 0v-543h75l8 79h3c47-52 104-93 169-93 83 0 128 40 150 104 56-61 113-104 179-104 112 0 165 74 165 213V0h-91v-332c0-102-32-145-101-145-42 0-86 27-137 83V0h-91v-332c0-102-32-145-101-145-41 0-87 27-137 83V0H92" id="aj"/><path fill="#282c33" d="M217 13C126 13 58-43 58-141c0-118 103-177 334-203 0-70-23-137-112-137-63 0-120 29-163 58l-36-63c50-32 127-71 214-71 132 0 188 89 188 223V0h-75l-8-65h-3c-52 43-113 78-180 78zm26-73c53 0 96-25 149-72v-152c-183 22-245 67-245 137 0 62 42 87 96 87" id="ak"/><path fill="#282c33" d="M193-658v272h123c115 0 178-46 178-141 0-97-63-131-178-131H193zM608 0H503L325-311H193V0h-93v-733h230c149 0 256 53 256 206 0 114-66 182-166 206" id="al"/><path fill="#282c33" d="M311 13C167 13 51-92 51-271c0-176 119-286 245-286 154-3 234 132 212 307H142c6 116 77 190 180 190 53 0 96-16 136-43l33 60c-48 31-106 56-180 56zM141-315h291c0-110-50-169-135-169-77 0-145 62-156 169" id="am"/><g id="s"><use transform="matrix(0.022222222222222223,0,0,0.022222222222222223,0,0)" xlink:href="#ah"/><use transform="matrix(0.022222222222222223,0,0,0.022222222222222223,14.355555555555556,0)" xlink:href="#ai"/><use transform="matrix(0.022222222222222223,0,0,0.022222222222222223,27.822222222222223,0)" xlink:href="#aj"/><use transform="matrix(0.022222222222222223,0,0,0.022222222222222223,48.4,0)" xlink:href="#ak"/><use transform="matrix(0.022222222222222223,0,0,0.022222222222222223,60.93333333333334,0)" xlink:href="#al"/><use transform="matrix(0.022222222222222223,0,0,0.022222222222222223,75.04444444444445,0)" xlink:href="#am"/></g><path fill="#282c33" d="M867-675l-54 24c-20-41-54-101-81-138l53-23c25 36 61 96 82 137zm-134 27c-171-5-358-5-530 0v-83c136 12 292 3 437 6 28 0 64-2 93-6v83zM85-479c239 9 495 2 741 4 21 0 54-1 78-4v82c-113-4-234-1-350-2-3 241-88 364-256 456L224 2c154-62 251-193 247-401-128 1-262-2-386 2v-82zm757-351l53-22c26 36 65 99 84 136l-54 24c-22-44-54-100-83-138" id="an"/><use transform="matrix(0.022222222222222223,0,0,0.022222222222222223,0,0)" xlink:href="#an" id="t"/><path fill="#282c33" d="M102-335v-98c214 10 463 3 687 5 50 0 86-3 108-5v98c-206-10-441-3-656-5-55 0-108 2-139 5" id="ao"/><use transform="matrix(0.022222222222222223,0,0,0.022222222222222223,0,0)" xlink:href="#ao" id="u"/><path fill="#282c33" d="M807-681l65 40c-8 14-17 38-23 54-25 88-76 199-146 297 38 24 72 47 97 65l-55 72c-24-19-57-43-95-69C560-119 434-21 258 44l-72-62c174-53 304-149 395-249-79-51-163-101-219-132l51-59c58 30 142 78 220 125 61-85 110-188 129-267H422c-64 89-153 187-265 263l-67-52c172-106 276-256 321-347 10-18 25-54 32-80l90 29c-27 44-41 77-65 116h273c27 0 49-3 66-10" id="ap"/><use transform="matrix(0.022222222222222223,0,0,0.022222222222222223,0,0)" xlink:href="#ap" id="v"/><path fill="#282c33" d="M691-678c25 36 71 111 94 158l-58 27c-25-53-60-115-93-160zm128-51c26 35 74 110 98 156l-58 28c-26-53-62-113-96-158zM54-263c95-79 171-187 268-300 53-63 94-70 166-10C643-433 789-265 937-99l-65 71C744-187 582-375 452-497c-42-35-56-34-90 8-74 93-169 210-235 300" id="aq"/><use transform="matrix(0.022222222222222223,0,0,0.022222222222222223,0,0)" xlink:href="#aq" id="w"/><path fill="#282c33" d="M749-708l51 39c-6 8-19 30-25 44-34 86-97 203-168 293 105 90 227 220 292 298l-70 61c-67-88-173-206-275-297C447-155 312-45 164 22l-64-67c262-111 480-315 578-575-161 2-340-5-491 5v-91c148 14 328 4 487 7 33 0 59-4 75-9" id="ar"/><use transform="matrix(0.022222222222222223,0,0,0.022222222222222223,0,0)" xlink:href="#ar" id="x"/><path fill="#282c33" d="M44 0v-54c230-201 336-347 336-473 0-84-44-145-135-145-60 0-112 37-152 85l-53-52c60-65 123-108 216-108 131 0 213 86 213 217 0 146-115 295-287 458 102-11 212-6 323-7V0H44" id="as"/><path fill="#282c33" d="M278 13C138 13 49-114 49-369s89-378 229-378c139 0 228 124 228 378 0 255-89 382-228 382zm0-73c83 0 139-93 139-309 0-214-56-304-139-304-84 0-140 90-140 304 0 216 56 309 140 309" id="at"/><path fill="#282c33" d="M115-275h224c1-122-3-242 6-358h-4c-64 130-151 240-226 358zm408 0v73h-97V0h-87v-202H20v-60l305-471h101v458h97" id="au"/><path fill="#282c33" d="M139 13c-36 0-66-28-66-69s30-71 66-71 66 30 66 71-30 69-66 69" id="av"/><path fill="#282c33" d="M88 0v-76h163v-547H121v-58c65-12 112-29 152-52h70v657h147V0H88" id="aw"/><g id="y"><use transform="matrix(0.022222222222222223,0,0,0.022222222222222223,0,0)" xlink:href="#as"/><use transform="matrix(0.022222222222222223,0,0,0.022222222222222223,12.333333333333334,0)" xlink:href="#at"/><use transform="matrix(0.022222222222222223,0,0,0.022222222222222223,24.666666666666668,0)" xlink:href="#as"/><use transform="matrix(0.022222222222222223,0,0,0.022222222222222223,37,0)" xlink:href="#au"/><use transform="matrix(0.022222222222222223,0,0,0.022222222222222223,49.333333333333336,0)" xlink:href="#av"/><use transform="matrix(0.022222222222222223,0,0,0.022222222222222223,55.51111111111111,0)" xlink:href="#aw"/><use transform="matrix(0.022222222222222223,0,0,0.022222222222222223,67.84444444444445,0)" xlink:href="#aw"/><use transform="matrix(0.022222222222222223,0,0,0.022222222222222223,80.17777777777778,0)" xlink:href="#av"/><use transform="matrix(0.022222222222222223,0,0,0.022222222222222223,86.35555555555555,0)" xlink:href="#as"/></g><g id="z"><use transform="matrix(0.022222222222222223,0,0,0.022222222222222223,0,0)" xlink:href="#R"/><use transform="matrix(0.022222222222222223,0,0,0.022222222222222223,7.511111111111111,0)" xlink:href="#J"/><use transform="matrix(0.022222222222222223,0,0,0.022222222222222223,21,0)" xlink:href="#E"/><use transform="matrix(0.022222222222222223,0,0,0.022222222222222223,31.399999999999995,0)" xlink:href="#F"/><use transform="matrix(0.022222222222222223,0,0,0.022222222222222223,43.71111111111111,0)" xlink:href="#G"/><use transform="matrix(0.022222222222222223,0,0,0.022222222222222223,52.33333333333333,0)" xlink:href="#K"/><use transform="matrix(0.022222222222222223,0,0,0.022222222222222223,64.75555555555555,0)" xlink:href="#L"/><use transform="matrix(0.022222222222222223,0,0,0.022222222222222223,70.86666666666666,0)" xlink:href="#M"/><use transform="matrix(0.022222222222222223,0,0,0.022222222222222223,84.64444444444445,0)" xlink:href="#W"/></g><path fill="#282c33" d="M239 197C147 47 92-114 92-311c0-196 55-358 147-507l57 26c-171 284-171 678 0 962" id="ax"/><path fill="#282c33" d="M99 197l-56-27c171-284 171-678 0-962l56-26c93 149 148 311 148 507 0 197-55 358-148 508" id="ay"/><g id="A"><use transform="matrix(0.022222222222222223,0,0,0.022222222222222223,0,0)" xlink:href="#ax"/><use transform="matrix(0.022222222222222223,0,0,0.022222222222222223,7.511111111111111,0)" xlink:href="#aw"/><use transform="matrix(0.022222222222222223,0,0,0.022222222222222223,19.844444444444445,0)" xlink:href="#ay"/></g><g id="B"><use transform="matrix(0.022222222222222223,0,0,0.022222222222222223,0,0)" xlink:href="#R"/><use transform="matrix(0.022222222222222223,0,0,0.022222222222222223,7.511111111111111,0)" xlink:href="#N"/><use transform="matrix(0.022222222222222223,0,0,0.022222222222222223,21.08888888888889,0)" xlink:href="#W"/></g><g id="C"><use transform="matrix(0.022222222222222223,0,0,0.022222222222222223,0,0)" xlink:href="#R"/><use transform="matrix(0.022222222222222223,0,0,0.022222222222222223,7.511111111111111,0)" xlink:href="#F"/><use transform="matrix(0.022222222222222223,0,0,0.022222222222222223,19.822222222222223,0)" xlink:href="#X"/><use transform="matrix(0.022222222222222223,0,0,0.022222222222222223,33.6,0)" xlink:href="#L"/><use transform="matrix(0.022222222222222223,0,0,0.022222222222222223,39.711111111111116,0)" xlink:href="#E"/><use transform="matrix(0.022222222222222223,0,0,0.022222222222222223,50.111111111111114,0)" xlink:href="#Z"/><use transform="matrix(0.022222222222222223,0,0,0.022222222222222223,63.57777777777778,0)" xlink:href="#M"/><use transform="matrix(0.022222222222222223,0,0,0.022222222222222223,77.35555555555555,0)" xlink:href="#F"/><use transform="matrix(0.022222222222222223,0,0,0.022222222222222223,89.66666666666667,0)" xlink:href="#K"/><use transform="matrix(0.022222222222222223,0,0,0.022222222222222223,102.08888888888889,0)" xlink:href="#L"/><use transform="matrix(0.022222222222222223,0,0,0.022222222222222223,108.2,0)" xlink:href="#M"/><use transform="matrix(0.022222222222222223,0,0,0.022222222222222223,121.97777777777779,0)" xlink:href="#W"/></g></defs></g></svg>